<svg width="178" height="40" viewBox="0 0 178 40" fill="none" xmlns="http://www.w3.org/2000/svg">
<path d="M0.5 20C0.5 10.5719 0.5 5.85786 3.42893 2.92893C6.35786 0 11.0719 0 20.5 0C29.9281 0 34.6421 0 37.5711 2.92893C40.5 5.85786 40.5 10.5719 40.5 20C40.5 29.4281 40.5 34.1421 37.5711 37.0711C34.6421 40 29.9281 40 20.5 40C11.0719 40 6.35786 40 3.42893 37.0711C0.5 34.1421 0.5 29.4281 0.5 20Z" fill="#4865DB"/>
<path d="M24.4999 26C25.0522 26 25.51 26.4521 25.4003 26.9934C25.2064 27.9494 24.7354 28.8355 24.0354 29.5355C23.0978 30.4732 21.826 31 20.4999 31C19.1738 31 17.9021 30.4732 16.9644 29.5355C16.2644 28.8355 15.7934 27.9494 15.5996 26.9934C15.4898 26.4521 15.9476 26 16.4999 26H24.4999Z" fill="white"/>
<path d="M26.6022 17.7765C26.0687 17.9194 25.742 18.4775 26.0125 18.959C26.2972 19.4658 26.691 19.9081 27.1701 20.2514C27.9223 20.7904 28.8381 21.052 29.7616 20.9914C30.685 20.9309 31.5589 20.5521 32.2343 19.9195C32.9098 19.2869 33.3449 18.4396 33.4657 17.5221C33.5865 16.6046 33.3855 15.6736 32.8968 14.8877C32.4081 14.1019 31.662 13.5098 30.7857 13.2123C29.9094 12.9148 28.9571 12.9304 28.091 13.2564C27.5394 13.464 27.0446 13.7893 26.6384 14.2051C26.2525 14.6002 26.4236 15.2239 26.9019 15.5L27.4092 15.7929C28.1807 16.2384 28.0286 17.3943 27.168 17.6249L26.6022 17.7765Z" fill="white"/>
<path d="M14.3977 17.7765C14.9312 17.9194 15.2579 18.4775 14.9874 18.959C14.7027 19.4658 14.3089 19.9081 13.8299 20.2514C13.0777 20.7904 12.1618 21.052 11.2384 20.9914C10.315 20.9309 9.44107 20.5521 8.76564 19.9195C8.09021 19.2869 7.65502 18.4396 7.53423 17.5221C7.41344 16.6046 7.61451 15.6736 8.1032 14.8877C8.59188 14.1019 9.33794 13.5098 10.2142 13.2123C11.0905 12.9148 12.0429 12.9304 12.909 13.2564C13.4605 13.464 13.9554 13.7893 14.3616 14.2051C14.7475 14.6002 14.5763 15.2239 14.098 15.5L13.5907 15.7929C12.8192 16.2384 12.9714 17.3943 13.8319 17.6249L14.3977 17.7765Z" fill="white"/>
<path d="M57.9868 27.5V12.3857H60.2119L65.4209 20.23H65.5029L70.7222 12.3857H72.937V27.5H70.0044V21.6143L70.0659 17.9023H69.9839L65.79 24.4443H65.1338L60.9399 17.9023H60.8579L60.9194 21.6143V27.5H57.9868ZM79.6736 27.6641C78.6277 27.6641 77.6775 27.4248 76.823 26.9463C75.9754 26.4609 75.2986 25.791 74.7928 24.9365C74.2938 24.082 74.0442 23.0977 74.0442 21.9834C74.0442 20.8691 74.2938 19.8916 74.7928 19.0508C75.2986 18.2031 75.9754 17.5435 76.823 17.0718C77.6775 16.5933 78.6277 16.354 79.6736 16.354C80.74 16.354 81.6971 16.5933 82.5447 17.0718C83.3924 17.5435 84.0623 18.2031 84.5545 19.0508C85.0535 19.8916 85.303 20.8691 85.303 21.9834C85.303 23.0977 85.0535 24.082 84.5545 24.9365C84.0555 25.791 83.3821 26.4609 82.5345 26.9463C81.6868 27.4248 80.7332 27.6641 79.6736 27.6641ZM79.6736 25.2134C80.2273 25.2134 80.7229 25.0801 81.1604 24.8135C81.5979 24.54 81.9432 24.1606 82.1961 23.6753C82.449 23.1899 82.5755 22.626 82.5755 21.9834C82.5755 21.3545 82.4524 20.8042 82.2063 20.3325C81.9603 19.854 81.6185 19.4814 81.181 19.2148C80.7503 18.9414 80.2513 18.8047 79.6839 18.8047C79.1302 18.8047 78.6346 18.938 78.1971 19.2046C77.7596 19.4644 77.4144 19.8335 77.1614 20.312C76.9085 20.7905 76.782 21.3477 76.782 21.9834C76.782 22.626 76.9085 23.1899 77.1614 23.6753C77.4144 24.1606 77.7562 24.54 78.1868 24.8135C78.6243 25.0801 79.1199 25.2134 79.6736 25.2134ZM91.4039 27.6641C90.358 27.6641 89.4078 27.4248 88.5533 26.9463C87.7057 26.4609 87.0289 25.791 86.523 24.9365C86.024 24.082 85.7745 23.0977 85.7745 21.9834C85.7745 20.8691 86.024 19.8916 86.523 19.0508C87.0289 18.2031 87.7057 17.5435 88.5533 17.0718C89.4078 16.5933 90.358 16.354 91.4039 16.354C92.4703 16.354 93.4273 16.5933 94.275 17.0718C95.1227 17.5435 95.7926 18.2031 96.2848 19.0508C96.7838 19.8916 97.0333 20.8691 97.0333 21.9834C97.0333 23.0977 96.7838 24.082 96.2848 24.9365C95.7857 25.791 95.1124 26.4609 94.2647 26.9463C93.4171 27.4248 92.4635 27.6641 91.4039 27.6641ZM91.4039 25.2134C91.9576 25.2134 92.4532 25.0801 92.8907 24.8135C93.3282 24.54 93.6734 24.1606 93.9264 23.6753C94.1793 23.1899 94.3058 22.626 94.3058 21.9834C94.3058 21.3545 94.1827 20.8042 93.9366 20.3325C93.6905 19.854 93.3487 19.4814 92.9112 19.2148C92.4806 18.9414 91.9815 18.8047 91.4142 18.8047C90.8604 18.8047 90.3648 18.938 89.9273 19.2046C89.4898 19.4644 89.1446 19.8335 88.8917 20.312C88.6388 20.7905 88.5123 21.3477 88.5123 21.9834C88.5123 22.626 88.6388 23.1899 88.8917 23.6753C89.1446 24.1606 89.4864 24.54 89.9171 24.8135C90.3546 25.0801 90.8502 25.2134 91.4039 25.2134ZM108.241 27.6641C107.762 27.5 107.359 27.3188 107.031 27.1206C106.709 26.9224 106.456 26.707 106.272 26.4746C106.094 26.2422 105.978 25.9824 105.923 25.6953L106.251 25.9004H105.298L105.78 24.6187V18.6611L105.267 17.5332H105.544V11.709H108.374V23.9009C108.374 24.3179 108.439 24.6187 108.569 24.8032C108.699 24.981 108.928 25.1348 109.256 25.2646L108.241 27.6641ZM102.345 27.6641C101.736 27.6641 101.142 27.5444 100.56 27.3052C99.9794 27.0659 99.4564 26.7104 98.9916 26.2388C98.5336 25.7603 98.1679 25.1689 97.8944 24.4648C97.6278 23.7607 97.4979 22.9473 97.5048 22.0244C97.4911 20.7939 97.7167 19.7549 98.1815 18.9072C98.6532 18.0596 99.265 17.4204 100.017 16.9897C100.769 16.5522 101.565 16.3335 102.406 16.3335C103.343 16.3335 104.17 16.5796 104.888 17.0718C105.605 17.564 106.166 18.2339 106.569 19.0815C106.979 19.9292 107.188 20.8794 107.195 21.9321C107.188 22.9917 106.973 23.959 106.549 24.834C106.125 25.7021 105.547 26.3926 104.816 26.9053C104.091 27.4111 103.267 27.6641 102.345 27.6641ZM102.97 25.2646C103.496 25.2578 103.961 25.1177 104.365 24.8442C104.775 24.564 105.096 24.1777 105.329 23.6855C105.568 23.1934 105.687 22.6226 105.687 21.9731C105.687 21.2964 105.568 20.7188 105.329 20.2402C105.089 19.7549 104.768 19.3823 104.365 19.1226C103.968 18.8628 103.52 18.7363 103.021 18.7432C102.481 18.7363 102.003 18.8662 101.586 19.1328C101.176 19.3994 100.854 19.7754 100.622 20.2607C100.39 20.7461 100.277 21.3169 100.284 21.9731C100.277 22.6226 100.386 23.1934 100.612 23.6855C100.844 24.1777 101.162 24.564 101.565 24.8442C101.975 25.1177 102.444 25.2578 102.97 25.2646ZM119.807 27.6641C118.556 27.6641 117.612 27.3188 116.977 26.6284C116.348 25.9312 116.033 25.0391 116.033 23.9521V13.2266H118.863V23.7881C118.863 24.2871 118.983 24.646 119.222 24.8647C119.468 25.0767 119.759 25.1826 120.094 25.1826C120.251 25.1826 120.401 25.1655 120.545 25.1313C120.695 25.0903 120.825 25.0391 120.935 24.9775L121.857 27.2129C121.57 27.3633 121.252 27.4761 120.904 27.5513C120.562 27.6265 120.196 27.6641 119.807 27.6641ZM114.229 18.8047V16.5078H121.447V18.8047H114.229ZM122.462 27.5V16.5181H125.221V18.0972H125.528L124.831 18.8457C125.002 18.4697 125.255 18.0903 125.59 17.7075C125.931 17.3247 126.352 17.0034 126.851 16.7437C127.35 16.4839 127.931 16.354 128.594 16.354C128.874 16.354 129.124 16.3745 129.343 16.4155C129.561 16.4565 129.719 16.501 129.814 16.5488L128.676 19.2661C128.615 19.2319 128.498 19.1978 128.327 19.1636C128.163 19.1294 127.979 19.1123 127.774 19.1123C127.507 19.1123 127.227 19.167 126.933 19.2764C126.639 19.3789 126.369 19.5361 126.123 19.748C125.877 19.96 125.675 20.2266 125.518 20.5479C125.367 20.8691 125.292 21.2451 125.292 21.6758V27.5H122.462ZM132.603 27.6641C131.865 27.6641 131.215 27.5171 130.655 27.2231C130.094 26.9224 129.657 26.519 129.342 26.0132C129.028 25.5073 128.871 24.9365 128.871 24.3008C128.871 23.6445 129.048 23.0669 129.404 22.5679C129.766 22.062 130.303 21.6689 131.014 21.3887C131.725 21.1016 132.603 20.958 133.649 20.958H136.089V22.8242H133.67C133.013 22.8242 132.501 22.9336 132.131 23.1523C131.762 23.3711 131.578 23.7129 131.578 24.1777C131.578 24.458 131.646 24.6973 131.783 24.8955C131.926 25.0869 132.125 25.2339 132.378 25.3364C132.63 25.439 132.918 25.4902 133.239 25.4902C133.533 25.4902 133.875 25.4253 134.264 25.2954C134.654 25.1655 134.992 24.957 135.279 24.6699C135.573 24.376 135.72 23.9932 135.72 23.5215V22.3936L135.536 21.8398V20.4248C135.536 20.1855 135.502 19.9634 135.433 19.7583C135.365 19.5532 135.252 19.3721 135.095 19.2148C134.944 19.0576 134.743 18.938 134.49 18.856C134.244 18.7671 133.943 18.7227 133.588 18.7227C133.239 18.7227 132.873 18.7603 132.49 18.8354C132.108 18.9106 131.742 19.0132 131.393 19.1431C131.051 19.2661 130.757 19.4062 130.511 19.5635L129.588 17.3691C129.869 17.2051 130.234 17.0479 130.686 16.8975C131.137 16.7402 131.643 16.6138 132.203 16.5181C132.771 16.4155 133.362 16.3643 133.977 16.3643C134.982 16.3643 135.772 16.501 136.346 16.7744C136.92 17.0479 137.34 17.3965 137.607 17.8203C137.88 18.2373 138.055 18.6748 138.13 19.1328C138.205 19.5908 138.243 20.0078 138.243 20.3838V23.8086C138.243 24.2256 138.284 24.54 138.366 24.752C138.455 24.957 138.626 25.1006 138.879 25.1826L139.125 25.2646L138.099 27.6641L137.771 27.541C137.17 27.3154 136.732 27.0522 136.459 26.7515C136.185 26.4438 136.028 26.1396 135.987 25.8389L136.52 26.1875H135.618L136.233 25.9004C136.001 26.3652 135.549 26.7754 134.879 27.1309C134.216 27.4863 133.458 27.6641 132.603 27.6641ZM145.082 27.623C144.275 27.623 143.52 27.4795 142.816 27.1924C142.119 26.9053 141.503 26.5054 140.97 25.9927C140.444 25.48 140.03 24.8818 139.729 24.1982C139.429 23.5078 139.278 22.7593 139.278 21.9526C139.278 21.1528 139.425 20.4146 139.719 19.7378C140.02 19.0542 140.433 18.4595 140.96 17.9536C141.486 17.4409 142.091 17.0444 142.775 16.7642C143.465 16.4839 144.2 16.3438 144.979 16.3438C145.608 16.3438 146.22 16.436 146.815 16.6206C147.41 16.7983 147.936 17.0479 148.394 17.3691L147.348 19.666C147.157 19.4951 146.938 19.3447 146.692 19.2148C146.446 19.085 146.183 18.9858 145.902 18.9175C145.629 18.8491 145.345 18.8149 145.051 18.8149C144.45 18.8149 143.92 18.9551 143.462 19.2354C143.004 19.5156 142.648 19.895 142.395 20.3735C142.142 20.8452 142.016 21.375 142.016 21.9629C142.016 22.5576 142.146 23.0977 142.406 23.583C142.665 24.0615 143.024 24.4443 143.482 24.7314C143.94 25.0117 144.463 25.1519 145.051 25.1519C145.53 25.1519 145.984 25.0698 146.415 24.9058C146.846 24.7349 147.17 24.5435 147.389 24.3315L148.414 26.6797C148.018 26.9395 147.529 27.1616 146.948 27.3462C146.374 27.5308 145.752 27.623 145.082 27.623ZM149.101 27.5V11.709H151.931V20.8862H152.813L151.849 21.3887L155.982 16.5078H159.386L154.044 22.5576V20.9478L159.642 27.5H156.248L151.829 22.1987L152.813 22.7319H151.931V27.5H149.101ZM164.246 27.6641C163.091 27.6641 162.086 27.4248 161.231 26.9463C160.377 26.4609 159.714 25.7944 159.242 24.9468C158.777 24.0923 158.545 23.1182 158.545 22.0244C158.545 20.8691 158.784 19.8711 159.263 19.0303C159.748 18.1826 160.391 17.5264 161.19 17.0615C161.997 16.5967 162.879 16.3643 163.836 16.3643C164.745 16.3643 165.576 16.5762 166.328 17C167.086 17.417 167.695 18.0083 168.153 18.7739C168.611 19.5327 168.84 20.4316 168.84 21.4707C168.84 21.71 168.826 21.939 168.799 22.1577C168.771 22.3765 168.73 22.6328 168.676 22.9268H160.657V21.04H166.235C166.235 20.5684 166.133 20.1548 165.928 19.7993C165.723 19.4438 165.439 19.167 165.077 18.9688C164.721 18.7637 164.308 18.6611 163.836 18.6611C163.262 18.6611 162.763 18.8013 162.339 19.0815C161.922 19.355 161.597 19.7378 161.365 20.23C161.139 20.7222 161.026 21.293 161.026 21.9424C161.026 22.6191 161.153 23.2139 161.406 23.7266C161.659 24.2393 162.021 24.6426 162.493 24.9365C162.964 25.2236 163.521 25.3672 164.164 25.3672C164.526 25.3672 164.878 25.3262 165.22 25.2441C165.562 25.1553 165.88 25.0391 166.174 24.8955C166.468 24.752 166.721 24.5947 166.933 24.4238L167.855 26.6592C167.418 26.96 166.885 27.2026 166.256 27.3872C165.634 27.5718 164.964 27.6641 164.246 27.6641ZM169.814 27.5V16.5181H172.572V18.0972H172.88L172.182 18.8457C172.353 18.4697 172.606 18.0903 172.941 17.7075C173.283 17.3247 173.703 17.0034 174.202 16.7437C174.701 16.4839 175.283 16.354 175.946 16.354C176.226 16.354 176.475 16.3745 176.694 16.4155C176.913 16.4565 177.07 16.501 177.166 16.5488L176.028 19.2661C175.966 19.2319 175.85 19.1978 175.679 19.1636C175.515 19.1294 175.33 19.1123 175.125 19.1123C174.859 19.1123 174.578 19.167 174.284 19.2764C173.991 19.3789 173.721 19.5361 173.474 19.748C173.228 19.96 173.027 20.2266 172.869 20.5479C172.719 20.8691 172.644 21.2451 172.644 21.6758V27.5H169.814Z" fill="#21214D"/>
</svg>
