<svg width="10" height="11" viewBox="0 0 10 11" fill="none" xmlns="http://www.w3.org/2000/svg">
<path d="M6.25 1.06641C6.23047 1.20312 6.17188 1.39844 6.09375 1.49609L4.47266 3.3125H5.625C5.78125 3.3125 5.9375 3.46875 5.9375 3.625V3.9375C5.9375 4.11328 5.78125 4.25 5.625 4.25H3.4375C3.26172 4.25 3.125 4.11328 3.125 3.9375V3.68359C3.125 3.56641 3.18359 3.37109 3.26172 3.27344L4.88281 1.4375H3.75C3.57422 1.4375 3.4375 1.30078 3.4375 1.125V0.8125C3.4375 0.65625 3.57422 0.5 3.75 0.5H5.9375C6.09375 0.5 6.25 0.65625 6.25 0.8125V1.06641ZM4.53125 5.5C4.78516 5.5 5 5.71484 5 5.96875V6.47656C4.98047 6.61328 4.90234 6.80859 4.80469 6.90625L2.42188 9.25H4.6875C4.84375 9.25 5 9.40625 5 9.5625V10.1875C5 10.3633 4.84375 10.5 4.6875 10.5H1.09375C0.820312 10.5 0.625 10.3047 0.625 10.0312V9.54297C0.625 9.40625 0.703125 9.21094 0.800781 9.11328L3.18359 6.75H1.25C1.07422 6.75 0.9375 6.61328 0.9375 6.4375V5.8125C0.9375 5.65625 1.07422 5.5 1.25 5.5H4.53125ZM9.0625 4.875C9.21875 4.875 9.375 5.03125 9.375 5.1875V5.44141C9.35547 5.57812 9.29688 5.77344 9.21875 5.87109L7.59766 7.6875H8.75C8.90625 7.6875 9.0625 7.84375 9.0625 8V8.3125C9.0625 8.48828 8.90625 8.625 8.75 8.625H6.5625C6.38672 8.625 6.25 8.48828 6.25 8.3125V8.05859C6.25 7.94141 6.30859 7.74609 6.38672 7.64844L8.00781 5.8125H6.875C6.69922 5.8125 6.5625 5.67578 6.5625 5.5V5.1875C6.5625 5.03125 6.69922 4.875 6.875 4.875H9.0625Z" fill="#57577B"/>
</svg>
